<svg id="Groupe_19" data-name="Groupe 19" xmlns="http://www.w3.org/2000/svg" width="840.465" height="472.065" viewBox="0 0 840.465 472.065">
  <g id="Groupe_1" data-name="Groupe 1" transform="translate(28.03 27.964)">
    <path id="Tracé_1" data-name="Tracé 1" d="M300.885,299.5v39.064h.362v-38.7ZM261.13,321.469v17.095h.362V321.469ZM300.885,45.98v78.457h.362V45.98Zm-39.755,0v78.457h.362V45.98Z" transform="translate(-76.68 -45.98)" fill="#fff"/>
    <path id="Tracé_2" data-name="Tracé 2" d="M261.13,45.99V172.569h.362V45.99Z" transform="translate(-76.68 -45.957)" fill="#fff"/>
    <path id="Tracé_3" data-name="Tracé 3" d="M490.934,146.617V277.511H451.607V253.664c-7.51,8.794-24.67,23.847-56.059,26.778-47.265,4.183-72.759-27.173-69-60.243,4.611-39.69,32.213-51.415,73.615-62.285,25.922-6.719,48.089-8.366,50.164-22.6,2.932-19.664-19.664-28.425-36.791-27.173-20.059.856-36.824,10.441-42.654,31.785l-35.968-7.51c5.006-25.494,29.281-59.781,81.553-59.781,42.226,0,74.439,20.487,74.439,74.043Zm-39.327,35.968s-17.984,5.039-44.762,11.726c-35.968,9.19-38.076,26.35-36.824,34.288,1.252,9.19,8.794,17.556,30.961,15.909,20.487-1.68,50.592-21.343,50.592-53.128v-8.794Z" transform="translate(72.527 15.171)" fill="#fff"/>
    <path id="Tracé_4" data-name="Tracé 4" d="M483.4,280.19c-58.563,0-98.285-46.87-98.285-103.72S423.581,72.75,482.144,72.75s89.919,46.87,89.919,103.72a106.092,106.092,0,0,1-1.68,20.092H429.872c5.863,25.1,24.275,43.906,53.523,43.906v39.755m-54.38-121.309h102.04c-4.183-26.317-18.807-46.409-48.945-46.409S434.45,132.6,429.016,158.914Z" transform="translate(207.698 15.424)" fill="#fff"/>
    <path id="Tracé_5" data-name="Tracé 5" d="M205.13,152.314c0-18.445,15.382-33.794,34.42-33.794a33.743,33.743,0,0,1,33.827,33.794c0,18.412-15.382,34.453-33.827,34.453A34.775,34.775,0,0,1,205.13,152.314Z" transform="translate(-205.13 120.408)" fill="#fff"/>
    <path id="Tracé_6" data-name="Tracé 6" d="M490.7,116.773c-25.79,0-46.376,9.42-61.362,24.769V45.99H389.942V172.569H244.885V45.99H205.13V211.632H389.58V321.479h.362v17.095h39.393V299.51l.362.362c14.987,15.349,35.572,24.407,61.033,24.407,58.6,0,93.806-46.738,93.806-103.555S549.656,116.806,490.73,116.806ZM486.152,284.49c-36.264,0-54.742-29.281-54.742-63.8s17.786-64.162,54.742-64.162,54.742,29.281,54.742,64.162S522.416,284.49,486.152,284.49Z" transform="translate(-205.13 -45.957)" fill="#fff"/>
    <path id="Tracé_7" data-name="Tracé 7" d="M469.079,124.782a26.425,26.425,0,0,1,10.079,10.244,29.423,29.423,0,0,1,3.656,14.657,29.762,29.762,0,0,1-3.656,14.723,26.6,26.6,0,0,1-10.079,10.309,28.79,28.79,0,0,1-14.591,3.722,29.282,29.282,0,0,1-14.723-3.722,25.941,25.941,0,0,1-10.079-10.309,29.762,29.762,0,0,1-3.656-14.723,29.423,29.423,0,0,1,3.656-14.657,26.652,26.652,0,0,1,10.079-10.244,28.935,28.935,0,0,1,14.723-3.722A28.531,28.531,0,0,1,469.079,124.782Zm1.746,41.567c4.15-4.315,6.225-9.848,6.225-16.7s-2.075-12.385-6.225-16.7c-4.15-4.282-9.618-6.456-16.337-6.456s-12.253,2.141-16.337,6.456c-4.051,4.315-6.094,9.848-6.094,16.7s2.042,12.384,6.094,16.7,9.519,6.456,16.337,6.456S466.675,170.664,470.825,166.349Zm-5.468-16.9a9.476,9.476,0,0,1-4.842,3.294l7.839,11.627-8.827.132-6.719-11.232h-2.371V164.5h-7.279V134.367h13.471a11.2,11.2,0,0,1,7.641,2.536,8.71,8.71,0,0,1,2.866,6.884,9.137,9.137,0,0,1-1.746,5.665Zm-14.921-2.174H456.2a4.034,4.034,0,0,0,2.6-.823,2.89,2.89,0,0,0,1.054-2.371,2.678,2.678,0,0,0-1.054-2.306,4.2,4.2,0,0,0-2.6-.758h-5.764v6.324Z" transform="translate(301.558 126.234)" fill="#fff"/>
  </g>
  <g id="Groupe_2" data-name="Groupe 2" transform="translate(28.465 27.964)">
    <path id="Tracé_8" data-name="Tracé 8" d="M300.885,299.5v39.064h.362v-38.7ZM261.13,321.469v17.095h.362V321.469ZM300.885,45.98v78.457h.362V45.98Zm-39.755,0v78.457h.362V45.98Z" transform="translate(-76.68 -45.98)" fill="#fff"/>
    <path id="Tracé_9" data-name="Tracé 9" d="M261.13,45.99V172.569h.362V45.99Z" transform="translate(-76.68 -45.957)" fill="#fff"/>
    <path id="Tracé_10" data-name="Tracé 10" d="M490.934,146.617V277.511H451.607V253.664c-7.51,8.794-24.67,23.847-56.059,26.778-47.265,4.183-72.759-27.173-69-60.243,4.611-39.69,32.213-51.415,73.615-62.285,25.922-6.719,48.089-8.366,50.164-22.6,2.932-19.664-19.664-28.425-36.791-27.173-20.059.856-36.824,10.441-42.654,31.785l-35.968-7.51c5.006-25.494,29.281-59.781,81.553-59.781,42.226,0,74.439,20.487,74.439,74.043Zm-39.327,35.968s-17.984,5.039-44.762,11.726c-35.968,9.19-38.076,26.35-36.824,34.288,1.252,9.19,8.794,17.556,30.961,15.909,20.487-1.68,50.592-21.343,50.592-53.128v-8.794Z" transform="translate(72.527 15.171)" fill="#fff"/>
    <path id="Tracé_11" data-name="Tracé 11" d="M483.4,280.19c-58.563,0-98.285-46.87-98.285-103.72S423.581,72.75,482.144,72.75s89.919,46.87,89.919,103.72a106.092,106.092,0,0,1-1.68,20.092H429.872c5.863,25.1,24.275,43.906,53.523,43.906v39.755m-54.38-121.309h102.04c-4.183-26.317-18.807-46.409-48.945-46.409S434.45,132.6,429.016,158.914Z" transform="translate(207.698 15.424)" fill="#df6782"/>
    <path id="Tracé_12" data-name="Tracé 12" d="M205.13,152.314c0-18.445,15.382-33.794,34.42-33.794a33.743,33.743,0,0,1,33.827,33.794c0,18.412-15.382,34.453-33.827,34.453A34.775,34.775,0,0,1,205.13,152.314Z" transform="translate(-205.13 120.408)" fill="#fff"/>
    <path id="Tracé_13" data-name="Tracé 13" d="M490.7,116.773c-25.79,0-46.376,9.42-61.362,24.769V45.99H389.942V172.569H244.885V45.99H205.13V211.632H389.58V321.479h.362v17.095h39.393V299.51l.362.362c14.987,15.349,35.572,24.407,61.033,24.407,58.6,0,93.806-46.738,93.806-103.555S549.656,116.806,490.73,116.806ZM486.152,284.49c-36.264,0-54.742-29.281-54.742-63.8s17.786-64.162,54.742-64.162,54.742,29.281,54.742,64.162S522.416,284.49,486.152,284.49Z" transform="translate(-205.13 -45.957)" fill="#fff"/>
    <path id="Tracé_14" data-name="Tracé 14" d="M469.079,124.782a26.425,26.425,0,0,1,10.079,10.244,29.423,29.423,0,0,1,3.656,14.657,29.762,29.762,0,0,1-3.656,14.723,26.6,26.6,0,0,1-10.079,10.309,28.79,28.79,0,0,1-14.591,3.722,29.282,29.282,0,0,1-14.723-3.722,25.941,25.941,0,0,1-10.079-10.309,29.762,29.762,0,0,1-3.656-14.723,29.423,29.423,0,0,1,3.656-14.657,26.652,26.652,0,0,1,10.079-10.244,28.935,28.935,0,0,1,14.723-3.722A28.531,28.531,0,0,1,469.079,124.782Zm1.746,41.567c4.15-4.315,6.225-9.848,6.225-16.7s-2.075-12.385-6.225-16.7c-4.15-4.282-9.618-6.456-16.337-6.456s-12.253,2.141-16.337,6.456c-4.051,4.315-6.094,9.848-6.094,16.7s2.042,12.384,6.094,16.7,9.519,6.456,16.337,6.456S466.675,170.664,470.825,166.349Zm-5.468-16.9a9.476,9.476,0,0,1-4.842,3.294l7.839,11.627-8.827.132-6.719-11.232h-2.371V164.5h-7.279V134.367h13.471a11.2,11.2,0,0,1,7.641,2.536,8.71,8.71,0,0,1,2.866,6.884,9.137,9.137,0,0,1-1.746,5.665Zm-14.921-2.174H456.2a4.034,4.034,0,0,0,2.6-.823,2.89,2.89,0,0,0,1.054-2.371,2.678,2.678,0,0,0-1.054-2.306,4.2,4.2,0,0,0-2.6-.758h-5.764v6.324Z" transform="translate(301.558 126.234)" fill="#fff"/>
  </g>
  <g id="Groupe_3" data-name="Groupe 3">
    <path id="Tracé_15" data-name="Tracé 15" d="M259.069,110.01c-34.42,0-62.449,27.733-62.449,61.824s28,62.482,62.449,62.482,61.857-28.03,61.857-62.482a61.668,61.668,0,0,0-61.857-61.824Z" transform="translate(-196.62 128.852)" fill="none"/>
    <path id="Tracé_16" data-name="Tracé 16" d="M1029.793,313.045a54.845,54.845,0,0,0-10.309-13.208,27.757,27.757,0,0,0,10.738-17.226,135.87,135.87,0,0,0,2.141-25.263c0-77.568-48.484-131.75-117.916-131.75-45.421,0-83.694,23.023-105.5,59.123-14-37.549-47.924-59.551-95.321-59.551s-78.885,21.936-96.078,49.7C597.555,134.128,558.392,108.24,510.2,108.24a121.379,121.379,0,0,0-33,4.447v-47.2a27.994,27.994,0,0,0-28-28H409.087a27.994,27.994,0,0,0-28,28v98.582h-88.7V65.487a27.994,27.994,0,0,0-28-28H224.637a27.994,27.994,0,0,0-28,28V231.129a27.994,27.994,0,0,0,28,28H381.09v98.911a27.994,27.994,0,0,0,28,28H449.2c.461,0,.955-.033,1.416-.066h.626a27.967,27.967,0,0,0,24.506-19,121.356,121.356,0,0,0,34.485,4.809c36.3,0,67.456-14.657,89.162-39.261A79.409,79.409,0,0,0,615.6,360.87c16.469,18.445,40.875,28.59,68.74,28.59h0c3.557,0,7.18-.165,10.968-.494a122.84,122.84,0,0,0,36.132-8.794,27.892,27.892,0,0,0,17.325,5.995H788.1a27.994,27.994,0,0,0,28-28V340.185c22.727,30.171,58.233,48.945,99.636,48.945a27.956,27.956,0,0,0,21.8-10.441,53.61,53.61,0,0,0,14.427,12.022,56.854,56.854,0,0,0,28.721,7.477,56.136,56.136,0,0,0,28.557-7.444,54.344,54.344,0,0,0,20.652-21.014,59.4,59.4,0,0,0-.066-56.619ZM505.659,275.99c-24.143,0-26.745-25.032-26.745-35.8,0-16.5,4.644-36.165,26.745-36.165,24.143,0,26.745,25.3,26.745,36.165S529.8,275.99,505.659,275.99Z" transform="translate(-196.574 -37.49)" fill="none"/>
  </g>
  <text id="HEALTH_BEFORE_ANYTHING_ELSE_" data-name="HEALTH BEFORE ANYTHING ELSE
" transform="translate(420.465 422.065)" fill="rgba(255,255,255,0.95)" font-size="30" font-family="OVSoge-Regular, OV Soge" letter-spacing="0.296em"><tspan x="-350.535" y="0">HEALTH BEFORE ANYTHING ELSE</tspan><tspan x="0" y="42"></tspan></text>
</svg>
